<mxfile host="app.diagrams.net" modified="2024-03-18T17:27:39.559Z" agent="Mozilla/5.0 (Windows NT 10.0; Win64; x64) AppleWebKit/537.36 (KHTML, like Gecko) Chrome/122.0.0.0 Safari/537.36" etag="2tk7IfeUlbQGv3IwmXqx" version="24.0.4" type="github">
  <diagram name="Page-1" id="LWREfx1xCxrgB_Nrb1qT">
    <mxGraphModel dx="1900" dy="557" grid="1" gridSize="10" guides="1" tooltips="1" connect="1" arrows="1" fold="1" page="1" pageScale="1" pageWidth="850" pageHeight="1100" math="0" shadow="0">
      <root>
        <mxCell id="0" />
        <mxCell id="1" parent="0" />
        <mxCell id="_e23UcnNAQQp3FzhX0jz-6" style="edgeStyle=orthogonalEdgeStyle;rounded=0;orthogonalLoop=1;jettySize=auto;html=1;entryX=0;entryY=0.5;entryDx=0;entryDy=0;" edge="1" parent="1" source="_e23UcnNAQQp3FzhX0jz-1" target="_e23UcnNAQQp3FzhX0jz-3">
          <mxGeometry relative="1" as="geometry" />
        </mxCell>
        <mxCell id="_e23UcnNAQQp3FzhX0jz-1" value="realiza" style="rhombus;whiteSpace=wrap;html=1;" vertex="1" parent="1">
          <mxGeometry x="400" y="200" width="80" height="80" as="geometry" />
        </mxCell>
        <mxCell id="_e23UcnNAQQp3FzhX0jz-4" style="edgeStyle=orthogonalEdgeStyle;rounded=0;orthogonalLoop=1;jettySize=auto;html=1;entryX=0;entryY=0.5;entryDx=0;entryDy=0;" edge="1" parent="1" source="_e23UcnNAQQp3FzhX0jz-2" target="_e23UcnNAQQp3FzhX0jz-1">
          <mxGeometry relative="1" as="geometry" />
        </mxCell>
        <mxCell id="_e23UcnNAQQp3FzhX0jz-8" style="edgeStyle=orthogonalEdgeStyle;rounded=0;orthogonalLoop=1;jettySize=auto;html=1;entryX=0.5;entryY=0;entryDx=0;entryDy=0;" edge="1" parent="1" source="_e23UcnNAQQp3FzhX0jz-2" target="_e23UcnNAQQp3FzhX0jz-7">
          <mxGeometry relative="1" as="geometry" />
        </mxCell>
        <mxCell id="_e23UcnNAQQp3FzhX0jz-10" style="edgeStyle=orthogonalEdgeStyle;rounded=0;orthogonalLoop=1;jettySize=auto;html=1;entryX=0.5;entryY=0;entryDx=0;entryDy=0;" edge="1" parent="1" source="_e23UcnNAQQp3FzhX0jz-2" target="_e23UcnNAQQp3FzhX0jz-9">
          <mxGeometry relative="1" as="geometry" />
        </mxCell>
        <mxCell id="_e23UcnNAQQp3FzhX0jz-2" value="Cuenta" style="rounded=0;whiteSpace=wrap;html=1;" vertex="1" parent="1">
          <mxGeometry x="120" y="210" width="120" height="60" as="geometry" />
        </mxCell>
        <mxCell id="_e23UcnNAQQp3FzhX0jz-14" style="edgeStyle=orthogonalEdgeStyle;rounded=0;orthogonalLoop=1;jettySize=auto;html=1;" edge="1" parent="1" source="_e23UcnNAQQp3FzhX0jz-3" target="_e23UcnNAQQp3FzhX0jz-13">
          <mxGeometry relative="1" as="geometry" />
        </mxCell>
        <mxCell id="_e23UcnNAQQp3FzhX0jz-18" style="edgeStyle=orthogonalEdgeStyle;rounded=0;orthogonalLoop=1;jettySize=auto;html=1;entryX=0.5;entryY=0;entryDx=0;entryDy=0;" edge="1" parent="1" source="_e23UcnNAQQp3FzhX0jz-3" target="_e23UcnNAQQp3FzhX0jz-17">
          <mxGeometry relative="1" as="geometry" />
        </mxCell>
        <mxCell id="_e23UcnNAQQp3FzhX0jz-23" style="edgeStyle=orthogonalEdgeStyle;rounded=0;orthogonalLoop=1;jettySize=auto;html=1;entryX=1;entryY=0.5;entryDx=0;entryDy=0;" edge="1" parent="1" source="_e23UcnNAQQp3FzhX0jz-3" target="_e23UcnNAQQp3FzhX0jz-22">
          <mxGeometry relative="1" as="geometry" />
        </mxCell>
        <mxCell id="_e23UcnNAQQp3FzhX0jz-3" value="Transacción" style="rounded=0;whiteSpace=wrap;html=1;" vertex="1" parent="1">
          <mxGeometry x="640" y="210" width="120" height="60" as="geometry" />
        </mxCell>
        <mxCell id="_e23UcnNAQQp3FzhX0jz-7" value="ID Cuenta" style="ellipse;whiteSpace=wrap;html=1;" vertex="1" parent="1">
          <mxGeometry x="200" y="340" width="120" height="80" as="geometry" />
        </mxCell>
        <mxCell id="_e23UcnNAQQp3FzhX0jz-9" value="Balance" style="ellipse;whiteSpace=wrap;html=1;dashed=1;" vertex="1" parent="1">
          <mxGeometry x="40" y="340" width="120" height="80" as="geometry" />
        </mxCell>
        <mxCell id="_e23UcnNAQQp3FzhX0jz-11" value="1:N" style="text;html=1;align=center;verticalAlign=middle;whiteSpace=wrap;rounded=0;" vertex="1" parent="1">
          <mxGeometry x="410" y="290" width="60" height="30" as="geometry" />
        </mxCell>
        <mxCell id="_e23UcnNAQQp3FzhX0jz-12" value="(0,1)" style="text;html=1;align=center;verticalAlign=middle;whiteSpace=wrap;rounded=0;" vertex="1" parent="1">
          <mxGeometry x="290" y="240" width="60" height="30" as="geometry" />
        </mxCell>
        <mxCell id="_e23UcnNAQQp3FzhX0jz-13" value="Fecha-hora" style="ellipse;whiteSpace=wrap;html=1;" vertex="1" parent="1">
          <mxGeometry x="730" y="90" width="120" height="80" as="geometry" />
        </mxCell>
        <mxCell id="_e23UcnNAQQp3FzhX0jz-21" style="edgeStyle=orthogonalEdgeStyle;rounded=0;orthogonalLoop=1;jettySize=auto;html=1;entryX=0.5;entryY=0;entryDx=0;entryDy=0;" edge="1" parent="1" source="_e23UcnNAQQp3FzhX0jz-17" target="_e23UcnNAQQp3FzhX0jz-19">
          <mxGeometry relative="1" as="geometry" />
        </mxCell>
        <mxCell id="_e23UcnNAQQp3FzhX0jz-17" value="Tipo de movimiento" style="ellipse;whiteSpace=wrap;html=1;" vertex="1" parent="1">
          <mxGeometry x="670" y="300" width="140" height="80" as="geometry" />
        </mxCell>
        <mxCell id="_e23UcnNAQQp3FzhX0jz-15" value="" style="ellipse;whiteSpace=wrap;html=1;fillColor=none;" vertex="1" parent="1">
          <mxGeometry x="680" y="310" width="120" height="60" as="geometry" />
        </mxCell>
        <mxCell id="_e23UcnNAQQp3FzhX0jz-19" value="Transacción&lt;div&gt;Depósito&lt;/div&gt;&lt;div&gt;Retiro&lt;/div&gt;" style="ellipse;whiteSpace=wrap;html=1;" vertex="1" parent="1">
          <mxGeometry x="680" y="430" width="110" height="50" as="geometry" />
        </mxCell>
        <mxCell id="_e23UcnNAQQp3FzhX0jz-22" value="Monto" style="ellipse;whiteSpace=wrap;html=1;dashed=1;" vertex="1" parent="1">
          <mxGeometry x="500" y="320" width="120" height="80" as="geometry" />
        </mxCell>
        <mxCell id="_e23UcnNAQQp3FzhX0jz-24" value="(0,N)" style="text;html=1;align=center;verticalAlign=middle;whiteSpace=wrap;rounded=0;" vertex="1" parent="1">
          <mxGeometry x="530" y="240" width="60" height="30" as="geometry" />
        </mxCell>
        <mxCell id="_e23UcnNAQQp3FzhX0jz-27" value="La cuenta, ¿cuántas transacciones puede hacer?" style="text;html=1;align=center;verticalAlign=middle;whiteSpace=wrap;rounded=0;" vertex="1" parent="1">
          <mxGeometry x="570" y="30" width="280" height="20" as="geometry" />
        </mxCell>
        <mxCell id="_e23UcnNAQQp3FzhX0jz-29" value="Por cada transacción, ¿a cuántas cuentas puede pertenecer?" style="text;html=1;align=center;verticalAlign=middle;whiteSpace=wrap;rounded=0;" vertex="1" parent="1">
          <mxGeometry x="-10" y="30" width="280" height="30" as="geometry" />
        </mxCell>
      </root>
    </mxGraphModel>
  </diagram>
</mxfile>
